<svg xmlns="http://www.w3.org/2000/svg" xmlns:xlink="http://www.w3.org/1999/xlink" xmlns:lucid="lucid" width="1203" height="764"><g transform="translate(-132 -176)" lucid:page-tab-id="HWEp-vi-RSFO"><path d="M240 420h600v160H240z" stroke="#333" stroke-width="2" fill="#b2d6ef"/><path d="M240 479.2h600" stroke="#333" stroke-width="2" fill="none"/><use xlink:href="#a" transform="matrix(1,0,0,1,248,428) translate(247.55 14.799999999999999)"/><use xlink:href="#b" transform="matrix(1,0,0,1,248,428) translate(229.29999999999998 36.4)"/><use xlink:href="#c" transform="matrix(1,0,0,1,252,487.2) translate(0 17.399999999999995)"/><use xlink:href="#d" transform="matrix(1,0,0,1,252,487.2) translate(13.777777777777779 17.399999999999995)"/><use xlink:href="#c" transform="matrix(1,0,0,1,252,487.2) translate(0 36.599999999999994)"/><use xlink:href="#e" transform="matrix(1,0,0,1,252,487.2) translate(13.777777777777779 36.599999999999994)"/><use xlink:href="#c" transform="matrix(1,0,0,1,252,487.2) translate(0 55.8)"/><use xlink:href="#f" transform="matrix(1,0,0,1,252,487.2) translate(13.777777777777779 55.8)"/><use xlink:href="#c" transform="matrix(1,0,0,1,252,487.2) translate(0 75)"/><use xlink:href="#g" transform="matrix(1,0,0,1,252,487.2) translate(13.777777777777779 75)"/><path d="M330 658.5v-4.54m0-4.54v-9.1m0-4.53v-9.1m0-4.53v-9.1m0-4.53V604" stroke="#333" fill="none"/><path d="M330.5 659h-1v-.5h1z" fill="#333"/><path d="M330 581.98l12.73 21.52h-25.46z" stroke="#333" fill="#fff"/><path d="M240 660h180v113H240z" stroke="#333" stroke-width="2" fill="#b2d6ef"/><path d="M240 697.6h180m-180 37.6h180" stroke="#333" stroke-width="2" fill="none"/><use xlink:href="#h" transform="matrix(1,0,0,1,248,668) translate(63.525 14.6)"/><use xlink:href="#i" transform="matrix(1,0,0,1,252,743.2) translate(0 14.6)"/><use xlink:href="#j" transform="matrix(1,0,0,1,252,743.2) translate(15.5 14.6)"/><path d="M377 679.67h180v113H377z" stroke="#333" stroke-width="2" fill="#b2d6ef"/><path d="M377 717.27h180m-180 37.6h180" stroke="#333" stroke-width="2" fill="none"/><use xlink:href="#k" transform="matrix(1,0,0,1,385,687.6657894005797) translate(61.525 14.6)"/><use xlink:href="#i" transform="matrix(1,0,0,1,389,762.8657894005797) translate(0 14.6)"/><use xlink:href="#l" transform="matrix(1,0,0,1,389,762.8657894005797) translate(15.5 14.6)"/><path d="M519 700h180v113H519z" stroke="#333" stroke-width="2" fill="#b2d6ef"/><path d="M519 737.6h180m-180 37.6h180" stroke="#333" stroke-width="2" fill="none"/><use xlink:href="#m" transform="matrix(1,0,0,1,527,708) translate(61.525 14.6)"/><use xlink:href="#i" transform="matrix(1,0,0,1,531,783.2) translate(0 14.6)"/><use xlink:href="#n" transform="matrix(1,0,0,1,531,783.2) translate(15.5 14.6)"/><path d="M660 720h180v113H660z" stroke="#333" stroke-width="2" fill="#b2d6ef"/><path d="M660 757.6h180m-180 37.6h180" stroke="#333" stroke-width="2" fill="none"/><use xlink:href="#o" transform="matrix(1,0,0,1,668,728) translate(61.525 14.6)"/><use xlink:href="#i" transform="matrix(1,0,0,1,672,803.2) translate(0 14.6)"/><use xlink:href="#p" transform="matrix(1,0,0,1,672,803.2) translate(15.5 14.6)"/><path d="M480 677.5v-4.9m0-4.9v-9.8m0-4.9v-9.8m0-4.9v-9.8m0-4.9v-9.8m0-4.9V604M480 677.5v.5" stroke="#333" fill="none"/><path d="M480 581.98l12.73 21.52h-25.46z" stroke="#333" fill="#fff"/><path d="M640 698.5v-5.25m0-5.25v-10.5m0-5.25v-10.5m0-5.25V646m0-5.25v-10.5m0-5.25v-10.5m0-5.25V604" stroke="#333" fill="none"/><path d="M640.5 699h-1v-.5h1z" fill="#333"/><path d="M640 581.98l12.73 21.52h-25.46z" stroke="#333" fill="#fff"/><path d="M780 718.5v-4.77m0-4.77v-9.54m0-4.77v-9.55m0-4.77v-9.54m0-4.78v-9.54m0-4.77v-9.53m0-4.77v-9.55m0-4.77v-9.54m0-4.77V604" stroke="#333" fill="none"/><path d="M780.5 719h-1v-.5h1z" fill="#333"/><path d="M780 581.98l12.73 21.52h-25.46z" stroke="#333" fill="#fff"/><path d="M920 433h300v134H920z" stroke="#333" stroke-width="2" fill="#ffdba9"/><path d="M920 470.6h300m-300 40.17h300" stroke="#333" stroke-width="2" fill="none"/><g><use xlink:href="#q" transform="matrix(1,0,0,1,928,441) translate(55.775000000000006 14.6)"/></g><g><use xlink:href="#c" transform="matrix(1,0,0,1,932,518.7666666666667) translate(8.75555555555556 23.7)"/><use xlink:href="#r" transform="matrix(1,0,0,1,932,518.7666666666667) translate(22.53333333333334 23.7)"/><use xlink:href="#s" transform="matrix(1,0,0,1,932,518.7666666666667) translate(162.75555555555556 23.7)"/></g><path d="M918.5 500h-61.12" stroke="#333" fill="none"/><path d="M919 500.5h-.5v-1h.5z" fill="#333"/><path d="M842.62 500l14.26-4.64v9.28z" stroke="#333" fill="#333"/><path d="M990 260h160v99H990z" stroke="#333" stroke-width="2" fill="#ffdba9"/><g><use xlink:href="#t" transform="matrix(1,0,0,1,998,268) translate(54.575 45.1)"/></g><path d="M1070 360.5v55.12" stroke="#333" fill="none"/><path d="M1070.5 360.5h-1v-.5h1z" fill="#333"/><path d="M1070 430.38l-4.64-14.26h9.28z" stroke="#333" fill="#333"/><defs><path fill="#333" d="M156-25L96-89v-11l60-65h29v5l-59 66 60 64v5h-30zm-82 0L15-89v-11l59-65h29v5L44-94l59 64v5H74" id="u"/><path fill="#333" d="M50-231l6-30h32l-6 30H50zM6 0l37-190h31L37 0H6" id="v"/><path fill="#333" d="M67-158c22-48 132-52 116 29L158 0h-32l25-140c3-38-53-32-70-12C52-117 51-52 38 0H6l36-190h30" id="w"/><path fill="#333" d="M51-54c-9 22 5 41 31 30L79-1C43 14 10-4 19-52l22-115H19l5-23h22l19-43h21l-9 43h35l-4 23H73" id="x"/><path fill="#333" d="M111-194c62-3 86 47 72 106H45c-7 38 6 69 45 68 27-1 43-14 53-32l24 11C152-15 129 4 87 4 38 3 12-23 12-71c0-70 32-119 99-123zm44 81c14-66-71-72-95-28-4 8-8 17-11 28h106" id="y"/><path fill="#333" d="M66-151c12-25 30-51 66-40l-6 26C45-176 58-65 38 0H6l36-190h30" id="z"/><path fill="#333" d="M76-167L44 0H12l33-167H18l4-23h27c3-47 25-81 82-69l-4 24c-35-8-44 15-46 45h37l-5 23H76" id="A"/><path fill="#333" d="M165-48c-4 18 1 34 23 27l-3 20c-29 8-62 0-52-35h-2C116-14 99 4 63 4 30 4 8-16 8-49c0-68 71-67 138-67 10-26 0-56-31-54-26 1-42 9-47 31l-32-5c8-67 160-71 144 15-5 28-9 54-15 81zM42-50c3 52 80 24 89-6 7-12 7-24 11-38-47 1-103-4-100 44" id="B"/><path fill="#333" d="M44-68c0 29 11 47 38 47 30 0 42-19 51-41l28 9C148-21 126 4 82 4 31 4 10-29 12-85c3-77 74-140 146-93 12 8 15 23 18 40l-31 5c-1-22-13-36-36-36-52 0-65 49-65 101" id="C"/><path fill="#333" d="M126-25H97v-5l59-64-59-66v-5h29l60 65v11zm-82 0H15v-5l59-64-59-66v-5h29l59 65v11" id="D"/><g id="a"><use transform="matrix(0.05,0,0,0.05,0,0)" xlink:href="#u"/><use transform="matrix(0.05,0,0,0.05,10,0)" xlink:href="#v"/><use transform="matrix(0.05,0,0,0.05,13.949999999999998,0)" xlink:href="#w"/><use transform="matrix(0.05,0,0,0.05,23.95,0)" xlink:href="#x"/><use transform="matrix(0.05,0,0,0.05,28.950000000000003,0)" xlink:href="#y"/><use transform="matrix(0.05,0,0,0.05,38.95,0)" xlink:href="#z"/><use transform="matrix(0.05,0,0,0.05,44.900000000000006,0)" xlink:href="#A"/><use transform="matrix(0.05,0,0,0.05,49.900000000000006,0)" xlink:href="#B"/><use transform="matrix(0.05,0,0,0.05,59.900000000000006,0)" xlink:href="#C"/><use transform="matrix(0.05,0,0,0.05,68.9,0)" xlink:href="#y"/><use transform="matrix(0.05,0,0,0.05,78.9,0)" xlink:href="#D"/></g><path fill="#333" d="M24 0v-248h52V0H24" id="E"/><path fill="#333" d="M147 0H94L2-248h55l64 206c17-72 42-137 63-206h54" id="F"/><path fill="#333" d="M25-224v-37h50v37H25zM25 0v-190h50V0H25" id="G"/><path fill="#333" d="M88-194c31-1 46 15 58 34l-1-101h50l1 261h-48c-2-10 0-23-3-31C134-8 116 4 84 4 32 4 16-41 15-95c0-56 19-97 73-99zm17 164c33 0 40-30 41-66 1-37-9-64-41-64s-38 30-39 65c0 43 13 65 39 65" id="H"/><path fill="#333" d="M185-48c-13 30-37 53-82 52C43 2 14-33 14-96s30-98 90-98c62 0 83 45 84 108H66c0 31 8 55 39 56 18 0 30-7 34-22zm-45-69c5-46-57-63-70-21-2 6-4 13-4 21h74" id="I"/><path fill="#333" d="M110-194c64 0 96 36 96 99 0 64-35 99-97 99-61 0-95-36-95-99 0-62 34-99 96-99zm-1 164c35 0 45-28 45-65 0-40-10-65-43-65-34 0-45 26-45 65 0 36 10 65 43 65" id="J"/><path fill="#333" d="M24 0v-248h195v40H76v63h132v40H76v65h150V0H24" id="K"/><path fill="#333" d="M135-194c87-1 58 113 63 194h-50c-7-57 23-157-34-157-59 0-34 97-39 157H25l-1-190h47c2 12-1 28 3 38 12-26 28-41 61-42" id="L"/><path fill="#333" d="M190-63c-7 42-38 67-86 67-59 0-84-38-90-98-12-110 154-137 174-36l-49 2c-2-19-15-32-35-32-30 0-35 28-38 64-6 74 65 87 74 30" id="M"/><path fill="#333" d="M135-150c-39-12-60 13-60 57V0H25l-1-190h47c2 13-1 29 3 40 6-28 27-53 61-41v41" id="N"/><g id="b"><use transform="matrix(0.05,0,0,0.05,0,0)" xlink:href="#E"/><use transform="matrix(0.05,0,0,0.05,5,0)" xlink:href="#F"/><use transform="matrix(0.05,0,0,0.05,16.65,0)" xlink:href="#G"/><use transform="matrix(0.05,0,0,0.05,21.65,0)" xlink:href="#H"/><use transform="matrix(0.05,0,0,0.05,32.6,0)" xlink:href="#I"/><use transform="matrix(0.05,0,0,0.05,42.6,0)" xlink:href="#J"/><use transform="matrix(0.05,0,0,0.05,53.550000000000004,0)" xlink:href="#K"/><use transform="matrix(0.05,0,0,0.05,65.55000000000001,0)" xlink:href="#L"/><use transform="matrix(0.05,0,0,0.05,76.50000000000001,0)" xlink:href="#M"/><use transform="matrix(0.05,0,0,0.05,86.50000000000001,0)" xlink:href="#J"/><use transform="matrix(0.05,0,0,0.05,97.45000000000002,0)" xlink:href="#H"/><use transform="matrix(0.05,0,0,0.05,108.40000000000003,0)" xlink:href="#I"/><use transform="matrix(0.05,0,0,0.05,118.40000000000003,0)" xlink:href="#N"/></g><path d="M118-107v75H92v-75H18v-26h74v-75h26v75h74v26h-74" id="O"/><use transform="matrix(0.044444444444444446,0,0,0.044444444444444446,0,0)" xlink:href="#O" id="c"/><path d="M212-179c-10-28-35-45-73-45-59 0-87 40-87 99 0 60 29 101 89 101 43 0 62-24 78-52l27 14C228-24 195 4 139 4 59 4 22-46 18-125c-6-104 99-153 187-111 19 9 31 26 39 46" id="P"/><path d="M100-194c62-1 85 37 85 99 1 63-27 99-86 99S16-35 15-95c0-66 28-99 85-99zM99-20c44 1 53-31 53-75 0-43-8-75-51-75s-53 32-53 75 10 74 51 75" id="Q"/><path d="M85-194c31 0 48 13 60 33l-1-100h32l1 261h-30c-2-10 0-23-3-31C134-8 116 4 85 4 32 4 16-35 15-94c0-66 23-100 70-100zm9 24c-40 0-46 34-46 75 0 40 6 74 45 74 42 0 51-32 51-76 0-42-9-74-50-73" id="R"/><path d="M100-194c63 0 86 42 84 106H49c0 40 14 67 53 68 26 1 43-12 49-29l28 8c-11 28-37 45-77 45C44 4 14-33 15-96c1-61 26-98 85-98zm52 81c6-60-76-77-97-28-3 7-6 17-6 28h103" id="S"/><path d="M96-169c-40 0-48 33-48 73s9 75 48 75c24 0 41-14 43-38l32 2c-6 37-31 61-74 61-59 0-76-41-82-99-10-93 101-131 147-64 4 7 5 14 7 22l-32 3c-4-21-16-35-41-35" id="T"/><path d="M33 0v-248h34V0H33" id="U"/><path d="M117-194c89-4 53 116 60 194h-32v-121c0-31-8-49-39-48C34-167 62-67 57 0H25l-1-190h30c1 10-1 24 2 32 11-22 29-35 61-36" id="V"/><path d="M24-231v-30h32v30H24zM24 0v-190h32V0H24" id="W"/><path d="M59-47c-2 24 18 29 38 22v24C64 9 27 4 27-40v-127H5v-23h24l9-43h21v43h35v23H59v120" id="X"/><path d="M87 75C49 33 22-17 22-94c0-76 28-126 65-167h31c-38 41-64 92-64 168S80 34 118 75H87" id="Y"/><path d="M33-261c38 41 65 92 65 168S71 34 33 75H2C39 34 66-17 66-93S39-220 2-261h31" id="Z"/><g id="d"><use transform="matrix(0.044444444444444446,0,0,0.044444444444444446,0,0)" xlink:href="#P"/><use transform="matrix(0.044444444444444446,0,0,0.044444444444444446,11.511111111111111,0)" xlink:href="#Q"/><use transform="matrix(0.044444444444444446,0,0,0.044444444444444446,20.4,0)" xlink:href="#R"/><use transform="matrix(0.044444444444444446,0,0,0.044444444444444446,29.28888888888889,0)" xlink:href="#S"/><use transform="matrix(0.044444444444444446,0,0,0.044444444444444446,38.17777777777778,0)" xlink:href="#T"/><use transform="matrix(0.044444444444444446,0,0,0.044444444444444446,46.17777777777778,0)" xlink:href="#U"/><use transform="matrix(0.044444444444444446,0,0,0.044444444444444446,50.62222222222223,0)" xlink:href="#V"/><use transform="matrix(0.044444444444444446,0,0,0.044444444444444446,59.511111111111106,0)" xlink:href="#W"/><use transform="matrix(0.044444444444444446,0,0,0.044444444444444446,63.02222222222221,0)" xlink:href="#X"/><use transform="matrix(0.044444444444444446,0,0,0.044444444444444446,67.46666666666667,0)" xlink:href="#Y"/><use transform="matrix(0.044444444444444446,0,0,0.044444444444444446,72.75555555555556,0)" xlink:href="#Z"/></g><path d="M101-234c-31-9-42 10-38 44h38v23H63V0H32v-167H5v-23h27c-7-52 17-82 69-68v24" id="aa"/><path d="M177-190C167-65 218 103 67 71c-23-6-38-20-44-43l32-5c15 47 100 32 89-28v-30C133-14 115 1 83 1 29 1 15-40 15-95c0-56 16-97 71-98 29-1 48 16 59 35 1-10 0-23 2-32h30zM94-22c36 0 50-32 50-73 0-42-14-75-50-75-39 0-46 34-46 75s6 73 46 73" id="ab"/><path d="M84 4C-5 8 30-112 23-190h32v120c0 31 7 50 39 49 72-2 45-101 50-169h31l1 190h-30c-1-10 1-25-2-33-11 22-28 36-60 37" id="ac"/><path d="M114-163C36-179 61-72 57 0H25l-1-190h30c1 12-1 29 2 39 6-27 23-49 58-41v29" id="ad"/><g id="e"><use transform="matrix(0.044444444444444446,0,0,0.044444444444444446,0,0)" xlink:href="#P"/><use transform="matrix(0.044444444444444446,0,0,0.044444444444444446,11.511111111111111,0)" xlink:href="#Q"/><use transform="matrix(0.044444444444444446,0,0,0.044444444444444446,20.4,0)" xlink:href="#V"/><use transform="matrix(0.044444444444444446,0,0,0.044444444444444446,29.28888888888889,0)" xlink:href="#aa"/><use transform="matrix(0.044444444444444446,0,0,0.044444444444444446,33.733333333333334,0)" xlink:href="#W"/><use transform="matrix(0.044444444444444446,0,0,0.044444444444444446,37.24444444444445,0)" xlink:href="#ab"/><use transform="matrix(0.044444444444444446,0,0,0.044444444444444446,46.13333333333333,0)" xlink:href="#ac"/><use transform="matrix(0.044444444444444446,0,0,0.044444444444444446,55.022222222222226,0)" xlink:href="#ad"/><use transform="matrix(0.044444444444444446,0,0,0.044444444444444446,60.31111111111111,0)" xlink:href="#S"/><use transform="matrix(0.044444444444444446,0,0,0.044444444444444446,69.2,0)" xlink:href="#Y"/><use transform="matrix(0.044444444444444446,0,0,0.044444444444444446,74.4888888888889,0)" xlink:href="#Z"/></g><path d="M30 0v-248h33v221h125V0H30" id="ae"/><path d="M141-36C126-15 110 5 73 4 37 3 15-17 15-53c-1-64 63-63 125-63 3-35-9-54-41-54-24 1-41 7-42 31l-33-3c5-37 33-52 76-52 45 0 72 20 72 64v82c-1 20 7 32 28 27v20c-31 9-61-2-59-35zM48-53c0 20 12 33 32 33 41-3 63-29 60-74-43 2-92-5-92 41" id="af"/><g id="f"><use transform="matrix(0.044444444444444446,0,0,0.044444444444444446,0,0)" xlink:href="#ae"/><use transform="matrix(0.044444444444444446,0,0,0.044444444444444446,8.88888888888889,0)" xlink:href="#Q"/><use transform="matrix(0.044444444444444446,0,0,0.044444444444444446,17.77777777777778,0)" xlink:href="#af"/><use transform="matrix(0.044444444444444446,0,0,0.044444444444444446,26.666666666666668,0)" xlink:href="#R"/><use transform="matrix(0.044444444444444446,0,0,0.044444444444444446,35.55555555555556,0)" xlink:href="#Y"/><use transform="matrix(0.044444444444444446,0,0,0.044444444444444446,40.84444444444445,0)" xlink:href="#Z"/></g><path d="M232-93c-1 65-40 97-104 97C67 4 28-28 28-90v-158h33c8 89-33 224 67 224 102 0 64-133 71-224h33v155" id="ag"/><path d="M24 0v-261h32V0H24" id="ah"/><g id="g"><use transform="matrix(0.044444444444444446,0,0,0.044444444444444446,0,0)" xlink:href="#ag"/><use transform="matrix(0.044444444444444446,0,0,0.044444444444444446,11.511111111111111,0)" xlink:href="#V"/><use transform="matrix(0.044444444444444446,0,0,0.044444444444444446,20.4,0)" xlink:href="#ah"/><use transform="matrix(0.044444444444444446,0,0,0.044444444444444446,23.91111111111111,0)" xlink:href="#Q"/><use transform="matrix(0.044444444444444446,0,0,0.044444444444444446,32.8,0)" xlink:href="#af"/><use transform="matrix(0.044444444444444446,0,0,0.044444444444444446,41.68888888888888,0)" xlink:href="#R"/><use transform="matrix(0.044444444444444446,0,0,0.044444444444444446,50.57777777777777,0)" xlink:href="#Y"/><use transform="matrix(0.044444444444444446,0,0,0.044444444444444446,55.86666666666666,0)" xlink:href="#Z"/></g><path fill="#333" d="M220-157c-53 9-28 100-34 157h-49v-107c1-27-5-49-29-50C55-147 81-57 75 0H25l-1-190h47c2 12-1 28 3 38 10-53 101-56 108 0 13-22 24-43 59-42 82 1 51 116 57 194h-49v-107c-1-25-5-48-29-50" id="ai"/><path fill="#333" d="M135-194c53 0 70 44 70 98 0 56-19 98-73 100-31 1-45-17-59-34 3 33 2 69 2 105H25l-1-265h48c2 10 0 23 3 31 11-24 29-35 60-35zM114-30c33 0 39-31 40-66 0-38-9-64-40-64-56 0-55 130 0 130" id="aj"/><path fill="#333" d="M165-50V0h-47v-50H5v-38l105-160h55v161h33v37h-33zm-47-37l2-116L46-87h72" id="ak"/><g id="h"><use transform="matrix(0.05,0,0,0.05,0,0)" xlink:href="#ai"/><use transform="matrix(0.05,0,0,0.05,16,0)" xlink:href="#aj"/><use transform="matrix(0.05,0,0,0.05,26.950000000000003,0)" xlink:href="#ak"/></g><path fill="#333" d="M118-107v75H92v-75H18v-26h74v-75h26v75h74v26h-74" id="al"/><use transform="matrix(0.05,0,0,0.05,0,0)" xlink:href="#al" id="i"/><path fill="#333" d="M210-169c-67 3-38 105-44 169h-31v-121c0-29-5-50-35-48C34-165 62-65 56 0H25l-1-190h30c1 10-1 24 2 32 10-44 99-50 107 0 11-21 27-35 58-36 85-2 47 119 55 194h-31v-121c0-29-5-49-35-48" id="am"/><path fill="#333" d="M115-194c55 1 70 41 70 98S169 2 115 4C84 4 66-9 55-30l1 105H24l-1-265h31l2 30c10-21 28-34 59-34zm-8 174c40 0 45-34 45-75s-6-73-45-74c-42 0-51 32-51 76 0 43 10 73 51 73" id="an"/><path fill="#333" d="M155-56V0h-30v-56H8v-25l114-167h33v167h35v25h-35zm-30-156c-27 46-58 90-88 131h88v-131" id="ao"/><path fill="#333" d="M100-194c63 0 86 42 84 106H49c0 40 14 67 53 68 26 1 43-12 49-29l28 8c-11 28-37 45-77 45C44 4 14-33 15-96c1-61 26-98 85-98zm52 81c6-60-76-77-97-28-3 7-6 17-6 28h103" id="ap"/><path fill="#333" d="M59-47c-2 24 18 29 38 22v24C64 9 27 4 27-40v-127H5v-23h24l9-43h21v43h35v23H59v120" id="aq"/><path fill="#333" d="M106-169C34-169 62-67 57 0H25v-261h32l-1 103c12-21 28-36 61-36 89 0 53 116 60 194h-32v-121c2-32-8-49-39-48" id="ar"/><path fill="#333" d="M100-194c62-1 85 37 85 99 1 63-27 99-86 99S16-35 15-95c0-66 28-99 85-99zM99-20c44 1 53-31 53-75 0-43-8-75-51-75s-53 32-53 75 10 74 51 75" id="as"/><path fill="#333" d="M85-194c31 0 48 13 60 33l-1-100h32l1 261h-30c-2-10 0-23-3-31C134-8 116 4 85 4 32 4 16-35 15-94c0-66 23-100 70-100zm9 24c-40 0-46 34-46 75 0 40 6 74 45 74 42 0 51-32 51-76 0-42-9-74-50-73" id="at"/><path fill="#333" d="M87 75C49 33 22-17 22-94c0-76 28-126 65-167h31c-38 41-64 92-64 168S80 34 118 75H87" id="au"/><path fill="#333" d="M33-261c38 41 65 92 65 168S71 34 33 75H2C39 34 66-17 66-93S39-220 2-261h31" id="av"/><g id="j"><use transform="matrix(0.05,0,0,0.05,0,0)" xlink:href="#am"/><use transform="matrix(0.05,0,0,0.05,14.950000000000001,0)" xlink:href="#an"/><use transform="matrix(0.05,0,0,0.05,24.950000000000003,0)" xlink:href="#ao"/><use transform="matrix(0.05,0,0,0.05,34.95,0)" xlink:href="#am"/><use transform="matrix(0.05,0,0,0.05,49.900000000000006,0)" xlink:href="#ap"/><use transform="matrix(0.05,0,0,0.05,59.900000000000006,0)" xlink:href="#aq"/><use transform="matrix(0.05,0,0,0.05,64.9,0)" xlink:href="#ar"/><use transform="matrix(0.05,0,0,0.05,74.9,0)" xlink:href="#as"/><use transform="matrix(0.05,0,0,0.05,84.9,0)" xlink:href="#at"/><use transform="matrix(0.05,0,0,0.05,94.9,0)" xlink:href="#au"/><use transform="matrix(0.05,0,0,0.05,100.85000000000001,0)" xlink:href="#av"/></g><path fill="#333" d="M114-157C55-157 80-60 75 0H25v-261h50l-1 109c12-26 28-41 61-42 86-1 58 113 63 194h-50c-7-57 23-157-34-157" id="aw"/><path fill="#333" d="M182-182c0 78-84 86-111 141h115V0H12c-6-101 99-100 120-180 1-22-12-31-33-32-23 0-32 14-35 34l-49-3c5-45 32-70 84-70 51 0 83 22 83 69" id="ax"/><path fill="#333" d="M115-159c48 0 72 30 72 78 0 54-30 85-83 85-64 0-91-50-91-122 0-98 58-163 141-120 15 8 21 24 27 44l-47 6c-5-31-48-31-61-4-7 14-11 33-11 60 9-17 28-27 53-27zM102-35c24 0 36-20 36-45s-11-43-37-43c-23 0-36 14-36 38 0 27 11 50 37 50" id="ay"/><path fill="#333" d="M128-127c34 4 56 21 59 58 7 91-148 94-172 28-4-9-6-17-7-26l51-5c1 24 16 35 40 36 23 0 39-12 38-36-1-31-31-36-65-34v-40c32 2 59-3 59-33 0-20-13-33-34-33s-33 13-35 32l-50-3c6-44 37-68 86-68 50 0 83 20 83 66 0 35-22 52-53 58" id="az"/><g id="k"><use transform="matrix(0.05,0,0,0.05,0,0)" xlink:href="#aw"/><use transform="matrix(0.05,0,0,0.05,10.950000000000001,0)" xlink:href="#ax"/><use transform="matrix(0.05,0,0,0.05,20.950000000000003,0)" xlink:href="#ay"/><use transform="matrix(0.05,0,0,0.05,30.950000000000003,0)" xlink:href="#az"/></g><path fill="#333" d="M101-251c82-7 93 87 43 132L82-64C71-53 59-42 53-27h129V0H18c2-99 128-94 128-182 0-28-16-43-45-43s-46 15-49 41l-32-3c6-41 34-60 81-64" id="aA"/><path fill="#333" d="M110-160c48 1 74 30 74 79 0 53-28 85-80 85-65 0-83-55-86-122-5-90 50-162 133-122 14 7 22 21 27 39l-31 6c-5-40-67-38-82-6-9 19-15 44-15 74 11-20 30-34 60-33zm-7 138c34 0 49-23 49-58s-16-56-50-56c-29 0-50 16-49 49 1 36 15 65 50 65" id="aB"/><path fill="#333" d="M126-127c33 6 58 20 58 59 0 88-139 92-164 29-3-8-5-16-6-25l32-3c6 27 21 44 54 44 32 0 52-15 52-46 0-38-36-46-79-43v-28c39 1 72-4 72-42 0-27-17-43-46-43-28 0-47 15-49 41l-32-3c6-42 35-63 81-64 48-1 79 21 79 65 0 36-21 52-52 59" id="aC"/><g id="l"><use transform="matrix(0.05,0,0,0.05,0,0)" xlink:href="#ar"/><use transform="matrix(0.05,0,0,0.05,10,0)" xlink:href="#aA"/><use transform="matrix(0.05,0,0,0.05,20,0)" xlink:href="#aB"/><use transform="matrix(0.05,0,0,0.05,30,0)" xlink:href="#aC"/><use transform="matrix(0.05,0,0,0.05,40,0)" xlink:href="#am"/><use transform="matrix(0.05,0,0,0.05,54.95,0)" xlink:href="#ap"/><use transform="matrix(0.05,0,0,0.05,64.95,0)" xlink:href="#aq"/><use transform="matrix(0.05,0,0,0.05,69.95,0)" xlink:href="#ar"/><use transform="matrix(0.05,0,0,0.05,79.95,0)" xlink:href="#as"/><use transform="matrix(0.05,0,0,0.05,89.95,0)" xlink:href="#at"/><use transform="matrix(0.05,0,0,0.05,99.95,0)" xlink:href="#au"/><use transform="matrix(0.05,0,0,0.05,105.9,0)" xlink:href="#av"/></g><g id="m"><use transform="matrix(0.05,0,0,0.05,0,0)" xlink:href="#aw"/><use transform="matrix(0.05,0,0,0.05,10.950000000000001,0)" xlink:href="#ax"/><use transform="matrix(0.05,0,0,0.05,20.950000000000003,0)" xlink:href="#ay"/><use transform="matrix(0.05,0,0,0.05,30.950000000000003,0)" xlink:href="#ak"/></g><g id="n"><use transform="matrix(0.05,0,0,0.05,0,0)" xlink:href="#ar"/><use transform="matrix(0.05,0,0,0.05,10,0)" xlink:href="#aA"/><use transform="matrix(0.05,0,0,0.05,20,0)" xlink:href="#aB"/><use transform="matrix(0.05,0,0,0.05,30,0)" xlink:href="#ao"/><use transform="matrix(0.05,0,0,0.05,40,0)" xlink:href="#am"/><use transform="matrix(0.05,0,0,0.05,54.95,0)" xlink:href="#ap"/><use transform="matrix(0.05,0,0,0.05,64.95,0)" xlink:href="#aq"/><use transform="matrix(0.05,0,0,0.05,69.95,0)" xlink:href="#ar"/><use transform="matrix(0.05,0,0,0.05,79.95,0)" xlink:href="#as"/><use transform="matrix(0.05,0,0,0.05,89.95,0)" xlink:href="#at"/><use transform="matrix(0.05,0,0,0.05,99.95,0)" xlink:href="#au"/><use transform="matrix(0.05,0,0,0.05,105.9,0)" xlink:href="#av"/></g><path fill="#333" d="M139-81c0-46-55-55-73-27H18l9-140h149v37H72l-4 63c44-38 133-4 122 66C201 21 21 35 11-62l49-4c5 18 15 30 39 30 26 0 40-18 40-45" id="aD"/><g id="o"><use transform="matrix(0.05,0,0,0.05,0,0)" xlink:href="#aw"/><use transform="matrix(0.05,0,0,0.05,10.950000000000001,0)" xlink:href="#ax"/><use transform="matrix(0.05,0,0,0.05,20.950000000000003,0)" xlink:href="#ay"/><use transform="matrix(0.05,0,0,0.05,30.950000000000003,0)" xlink:href="#aD"/></g><path fill="#333" d="M54-142c48-35 137-8 131 61C196 18 31 33 14-55l32-4c7 23 22 37 52 37 35-1 51-22 54-58 4-55-73-65-99-34H22l8-134h141v27H59" id="aE"/><g id="p"><use transform="matrix(0.05,0,0,0.05,0,0)" xlink:href="#ar"/><use transform="matrix(0.05,0,0,0.05,10,0)" xlink:href="#aA"/><use transform="matrix(0.05,0,0,0.05,20,0)" xlink:href="#aB"/><use transform="matrix(0.05,0,0,0.05,30,0)" xlink:href="#aE"/><use transform="matrix(0.05,0,0,0.05,40,0)" xlink:href="#am"/><use transform="matrix(0.05,0,0,0.05,54.95,0)" xlink:href="#ap"/><use transform="matrix(0.05,0,0,0.05,64.95,0)" xlink:href="#aq"/><use transform="matrix(0.05,0,0,0.05,69.95,0)" xlink:href="#ar"/><use transform="matrix(0.05,0,0,0.05,79.95,0)" xlink:href="#as"/><use transform="matrix(0.05,0,0,0.05,89.95,0)" xlink:href="#at"/><use transform="matrix(0.05,0,0,0.05,99.95,0)" xlink:href="#au"/><use transform="matrix(0.05,0,0,0.05,105.9,0)" xlink:href="#av"/></g><path fill="#333" d="M137 0h-34L2-248h35l83 218 83-218h36" id="aF"/><path fill="#333" d="M24-231v-30h32v30H24zM24 0v-190h32V0H24" id="aG"/><path fill="#333" d="M30 0v-248h187v28H63v79h144v27H63v87h162V0H30" id="aH"/><path fill="#333" d="M117-194c89-4 53 116 60 194h-32v-121c0-31-8-49-39-48C34-167 62-67 57 0H25l-1-190h30c1 10-1 24 2 32 11-22 29-35 61-36" id="aI"/><path fill="#333" d="M96-169c-40 0-48 33-48 73s9 75 48 75c24 0 41-14 43-38l32 2c-6 37-31 61-74 61-59 0-76-41-82-99-10-93 101-131 147-64 4 7 5 14 7 22l-32 3c-4-21-16-35-41-35" id="aJ"/><path fill="#333" d="M114-163C36-179 61-72 57 0H25l-1-190h30c1 12-1 29 2 39 6-27 23-49 58-41v29" id="aK"/><path fill="#333" d="M63-220v92h138v28H63V0H30v-248h175v28H63" id="aL"/><path fill="#333" d="M141-36C126-15 110 5 73 4 37 3 15-17 15-53c-1-64 63-63 125-63 3-35-9-54-41-54-24 1-41 7-42 31l-33-3c5-37 33-52 76-52 45 0 72 20 72 64v82c-1 20 7 32 28 27v20c-31 9-61-2-59-35zM48-53c0 20 12 33 32 33 41-3 63-29 60-74-43 2-92-5-92 41" id="aM"/><path fill="#333" d="M179-190L93 31C79 59 56 82 12 73V49c39 6 53-20 64-50L1-190h34L92-34l54-156h33" id="aN"/><g id="q"><use transform="matrix(0.05,0,0,0.05,0,0)" xlink:href="#aF"/><use transform="matrix(0.05,0,0,0.05,11.65,0)" xlink:href="#aG"/><use transform="matrix(0.05,0,0,0.05,15.600000000000001,0)" xlink:href="#at"/><use transform="matrix(0.05,0,0,0.05,25.6,0)" xlink:href="#ap"/><use transform="matrix(0.05,0,0,0.05,35.6,0)" xlink:href="#as"/><use transform="matrix(0.05,0,0,0.05,45.6,0)" xlink:href="#aH"/><use transform="matrix(0.05,0,0,0.05,57.6,0)" xlink:href="#aI"/><use transform="matrix(0.05,0,0,0.05,67.6,0)" xlink:href="#aJ"/><use transform="matrix(0.05,0,0,0.05,76.6,0)" xlink:href="#as"/><use transform="matrix(0.05,0,0,0.05,86.6,0)" xlink:href="#at"/><use transform="matrix(0.05,0,0,0.05,96.6,0)" xlink:href="#ap"/><use transform="matrix(0.05,0,0,0.05,106.59999999999998,0)" xlink:href="#aK"/><use transform="matrix(0.05,0,0,0.05,112.55000000000001,0)" xlink:href="#aL"/><use transform="matrix(0.05,0,0,0.05,123.5,0)" xlink:href="#aM"/><use transform="matrix(0.05,0,0,0.05,133.5,0)" xlink:href="#aJ"/><use transform="matrix(0.05,0,0,0.05,142.5,0)" xlink:href="#aq"/><use transform="matrix(0.05,0,0,0.05,147.5,0)" xlink:href="#as"/><use transform="matrix(0.05,0,0,0.05,157.5,0)" xlink:href="#aK"/><use transform="matrix(0.05,0,0,0.05,163.45,0)" xlink:href="#aN"/></g><path d="M30 0v-248h187v28H63v79h144v27H63v87h162V0H30" id="aO"/><path d="M135-143c-3-34-86-38-87 0 15 53 115 12 119 90S17 21 10-45l28-5c4 36 97 45 98 0-10-56-113-15-118-90-4-57 82-63 122-42 12 7 21 19 24 35" id="aP"/><path d="M33-154v-36h34v36H33zM33 0v-36h34V0H33" id="aQ"/><g id="r"><use transform="matrix(0.044444444444444446,0,0,0.044444444444444446,0,0)" xlink:href="#ab"/><use transform="matrix(0.044444444444444446,0,0,0.044444444444444446,8.88888888888889,0)" xlink:href="#S"/><use transform="matrix(0.044444444444444446,0,0,0.044444444444444446,17.77777777777778,0)" xlink:href="#X"/><use transform="matrix(0.044444444444444446,0,0,0.044444444444444446,22.22222222222222,0)" xlink:href="#aO"/><use transform="matrix(0.044444444444444446,0,0,0.044444444444444446,32.888888888888886,0)" xlink:href="#V"/><use transform="matrix(0.044444444444444446,0,0,0.044444444444444446,41.77777777777777,0)" xlink:href="#T"/><use transform="matrix(0.044444444444444446,0,0,0.044444444444444446,49.77777777777777,0)" xlink:href="#Q"/><use transform="matrix(0.044444444444444446,0,0,0.044444444444444446,58.66666666666666,0)" xlink:href="#R"/><use transform="matrix(0.044444444444444446,0,0,0.044444444444444446,67.55555555555554,0)" xlink:href="#S"/><use transform="matrix(0.044444444444444446,0,0,0.044444444444444446,76.44444444444443,0)" xlink:href="#ad"/><use transform="matrix(0.044444444444444446,0,0,0.044444444444444446,81.73333333333332,0)" xlink:href="#Y"/><use transform="matrix(0.044444444444444446,0,0,0.044444444444444446,87.02222222222221,0)" xlink:href="#aP"/><use transform="matrix(0.044444444444444446,0,0,0.044444444444444446,95.02222222222221,0)" xlink:href="#X"/><use transform="matrix(0.044444444444444446,0,0,0.044444444444444446,99.46666666666665,0)" xlink:href="#ad"/><use transform="matrix(0.044444444444444446,0,0,0.044444444444444446,104.75555555555555,0)" xlink:href="#W"/><use transform="matrix(0.044444444444444446,0,0,0.044444444444444446,108.26666666666665,0)" xlink:href="#V"/><use transform="matrix(0.044444444444444446,0,0,0.044444444444444446,117.15555555555554,0)" xlink:href="#ab"/><use transform="matrix(0.044444444444444446,0,0,0.044444444444444446,126.04444444444442,0)" xlink:href="#Z"/><use transform="matrix(0.044444444444444446,0,0,0.044444444444444446,131.33333333333331,0)" xlink:href="#aQ"/></g><path d="M137 0h-34L2-248h35l83 218 83-218h36" id="aR"/><g id="s"><use transform="matrix(0.044444444444444446,0,0,0.044444444444444446,0,0)" xlink:href="#U"/><use transform="matrix(0.044444444444444446,0,0,0.044444444444444446,4.444444444444445,0)" xlink:href="#aR"/><use transform="matrix(0.044444444444444446,0,0,0.044444444444444446,14.8,0)" xlink:href="#W"/><use transform="matrix(0.044444444444444446,0,0,0.044444444444444446,18.31111111111111,0)" xlink:href="#R"/><use transform="matrix(0.044444444444444446,0,0,0.044444444444444446,27.2,0)" xlink:href="#S"/><use transform="matrix(0.044444444444444446,0,0,0.044444444444444446,36.08888888888889,0)" xlink:href="#Q"/><use transform="matrix(0.044444444444444446,0,0,0.044444444444444446,44.977777777777774,0)" xlink:href="#aO"/><use transform="matrix(0.044444444444444446,0,0,0.044444444444444446,55.644444444444446,0)" xlink:href="#V"/><use transform="matrix(0.044444444444444446,0,0,0.044444444444444446,64.53333333333333,0)" xlink:href="#T"/><use transform="matrix(0.044444444444444446,0,0,0.044444444444444446,72.53333333333333,0)" xlink:href="#Q"/><use transform="matrix(0.044444444444444446,0,0,0.044444444444444446,81.42222222222222,0)" xlink:href="#R"/><use transform="matrix(0.044444444444444446,0,0,0.044444444444444446,90.3111111111111,0)" xlink:href="#S"/><use transform="matrix(0.044444444444444446,0,0,0.044444444444444446,99.19999999999999,0)" xlink:href="#ad"/></g><path d="M199 0l-22-63H83L61 0H9l90-248h61L250 0h-51zm-33-102l-36-108c-10 38-24 72-36 108h72" id="aS"/><path d="M135-194c53 0 70 44 70 98 0 56-19 98-73 100-31 1-45-17-59-34 3 33 2 69 2 105H25l-1-265h48c2 10 0 23 3 31 11-24 29-35 60-35zM114-30c33 0 39-31 40-66 0-38-9-64-40-64-56 0-55 130 0 130" id="aT"/><g id="t"><use transform="matrix(0.05,0,0,0.05,0,0)" xlink:href="#aS"/><use transform="matrix(0.05,0,0,0.05,12.950000000000001,0)" xlink:href="#aT"/><use transform="matrix(0.05,0,0,0.05,23.900000000000002,0)" xlink:href="#aT"/></g></defs></g></svg>